<?xml version="1.0" encoding="UTF-8" standalone="no"?>
<!-- Created with Inkscape (http://www.inkscape.org/) -->
<svg
   xmlns:dc="http://purl.org/dc/elements/1.1/"
   xmlns:cc="http://web.resource.org/cc/"
   xmlns:rdf="http://www.w3.org/1999/02/22-rdf-syntax-ns#"
   xmlns:svg="http://www.w3.org/2000/svg"
   xmlns="http://www.w3.org/2000/svg"
   xmlns:sodipodi="http://sodipodi.sourceforge.net/DTD/sodipodi-0.dtd"
   xmlns:inkscape="http://www.inkscape.org/namespaces/inkscape"
   width="163.45657"
   height="96.779808"
   id="svg2168"
   sodipodi:version="0.32"
   inkscape:version="0.45.1"
   version="1.0"
   sodipodi:docbase="D:\Eigene Dateien"
   sodipodi:docname="aldus_leaf_unicode2767.svg"
   inkscape:output_extension="org.inkscape.output.svg.inkscape">
  <defs
     id="defs2170" />
  <sodipodi:namedview
     id="base"
     pagecolor="#ffffff"
     bordercolor="#666666"
     borderopacity="1.0"
     inkscape:pageopacity="0.0"
     inkscape:pageshadow="2"
     inkscape:zoom="4.8375"
     inkscape:cx="77.5"
     inkscape:cy="80"
     inkscape:document-units="px"
     inkscape:current-layer="layer1"
     width="155px"
     height="160px"
     inkscape:window-width="1280"
     inkscape:window-height="975"
     inkscape:window-x="1356"
     inkscape:window-y="-4" />
  <metadata
     id="metadata2173">
    <rdf:RDF>
      <cc:Work
         rdf:about="">
        <dc:format>image/svg+xml</dc:format>
        <dc:type
           rdf:resource="http://purl.org/dc/dcmitype/StillImage" />
      </cc:Work>
    </rdf:RDF>
  </metadata>
  <g
     inkscape:label="Ebene 1"
     inkscape:groupmode="layer"
     id="layer1"
     transform="translate(-302.82041,-527.40975)">
    <path
       id="path2229"
       d="M 339.27779,603.49983 L 339.27779,604.99626 L 339.27779,606.10231 L 339.34284,607.27343 L 339.40789,608.50961 L 339.50545,609.77831 L 339.63554,610.9169 L 339.70059,611.79524 L 339.76563,612.3808 L 339.76563,612.70611 L 339.76563,613.19407 L 339.70059,613.68204 L 339.63554,614.17001 L 339.53797,614.65797 L 339.40789,615.14593 L 339.21276,615.60137 L 339.01761,616.05681 L 338.78996,616.51224 L 338.56231,616.96768 L 338.26961,617.42311 L 337.94439,617.84601 L 337.58664,618.26891 L 337.2289,618.69181 L 336.80611,619.11472 L 336.38332,619.53762 L 335.89549,619.928 L 335.40766,620.31837 L 334.91983,620.67621 L 334.39947,621.03405 L 333.87911,621.32684 L 333.32623,621.61961 L 332.77336,621.87985 L 332.22048,622.10757 L 331.63508,622.3353 L 331.01716,622.53048 L 330.43176,622.69314 L 329.78131,622.82326 L 329.16339,622.92085 L 328.51295,623.01845 L 327.82998,623.08351 L 327.17954,623.11604 L 326.49657,623.11604 L 325.48838,623.11604 L 324.51272,623.05097 L 323.56957,622.95338 L 322.62643,622.82326 L 321.71581,622.66061 L 320.83771,622.43289 L 319.99213,622.17264 L 319.14656,621.87985 L 318.33349,621.55454 L 317.55297,621.1967 L 316.77243,620.7738 L 316.02442,620.3509 L 315.30893,619.86293 L 314.62597,619.34244 L 313.943,618.75688 L 313.29256,618.17132 L 312.64211,617.5207 L 312.05672,616.87008 L 311.50384,616.1544 L 310.95097,615.40619 L 310.43061,614.65797 L 309.9753,613.84469 L 309.51999,612.99889 L 309.09719,612.12055 L 308.70693,611.24221 L 308.3817,610.29881 L 308.05649,609.32289 L 307.73126,608.31442 L 307.47108,607.30596 L 307.24343,606.23244 L 307.0483,605.12638 L 306.85317,603.9878 L 302.82041,602.58896 L 303.21067,601.38531 L 303.66598,600.18166 L 304.15382,599.01055 L 304.7067,597.9045 L 305.32462,596.79844 L 305.97506,595.75744 L 306.33281,595.23695 L 306.72307,594.71645 L 307.11334,594.19595 L 307.50361,593.70799 L 307.69874,591.98384 L 307.95892,590.32476 L 308.12152,589.51148 L 308.28414,588.69821 L 308.44675,587.88494 L 308.64188,587.10419 L 308.86954,586.32344 L 309.09719,585.57523 L 309.32485,584.82702 L 309.58503,584.0788 L 309.8452,583.33059 L 310.10538,582.61491 L 310.39808,581.89922 L 310.7233,581.21607 L 311.04853,580.50039 L 311.37375,579.81723 L 311.73149,579.16662 L 312.08924,578.516 L 312.4795,577.86538 L 312.86977,577.21476 L 313.26004,576.59666 L 313.68282,575.97857 L 314.13813,575.36049 L 314.56092,574.77493 L 315.04875,574.18938 L 315.50406,573.63634 L 315.9919,573.05079 L 316.51225,572.49776 L 317.03261,571.97726 L 317.55297,571.45676 L 318.10584,570.93627 L 318.69125,570.41577 L 319.24412,569.92781 L 319.82952,569.43984 L 320.44745,568.98441 L 321.06536,568.49644 L 321.68328,568.07354 L 322.33373,567.6181 L 322.98417,567.1952 L 323.66714,566.7723 L 324.3501,566.38192 L 325.03307,565.99155 L 326.46405,565.24334 L 327.96007,564.52766 L 329.48861,563.87704 L 331.0822,563.25894 L 332.74084,562.67339 L 334.46452,562.15289 L 336.22071,561.69746 L 338.04195,561.27455 L 339.89572,560.88418 L 341.81453,560.52634 L 341.4893,559.94078 L 341.09904,559.35522 L 340.67625,558.8022 L 340.18841,558.2817 L 339.60302,557.79373 L 339.01761,557.3383 L 338.33465,556.9154 L 337.58664,556.4925 L 336.80611,556.13465 L 335.96053,555.77681 L 335.04991,555.4515 L 334.10677,555.15873 L 333.06605,554.89847 L 331.99282,554.67075 L 330.85455,554.47557 L 329.68375,554.28038 L 329.00079,554.21532 L 328.41538,554.11773 L 327.89502,554.02013 L 327.47224,553.95508 L 326.43152,553.79242 L 325.42334,553.59723 L 324.44768,553.40205 L 323.53706,553.17433 L 322.62643,552.94661 L 321.78085,552.71889 L 320.96779,552.45865 L 320.18727,552.16587 L 319.43925,551.90562 L 318.72377,551.58031 L 318.07333,551.28752 L 317.42287,550.96221 L 316.83748,550.60438 L 316.2846,550.24654 L 315.76424,549.8887 L 315.27641,549.49832 L 314.8211,549.07542 L 314.39831,548.65252 L 314.00805,548.19708 L 313.61778,547.74164 L 313.29256,547.25368 L 312.99986,546.73318 L 312.70716,546.21269 L 312.4795,545.65966 L 312.25185,545.10663 L 312.05672,544.52108 L 311.89411,543.90298 L 311.76401,543.2849 L 311.66645,542.63428 L 311.60141,541.98366 L 311.56888,541.26797 L 311.53636,540.58482 L 311.53636,540.03179 L 311.56888,539.47876 L 311.63393,538.92574 L 311.69897,538.40524 L 311.79654,537.88475 L 311.89411,537.39678 L 312.02419,536.87629 L 312.1868,536.38832 L 312.34942,535.93289 L 312.54455,535.44491 L 312.7722,534.98948 L 312.99986,534.53405 L 313.26004,534.07862 L 313.52022,533.65571 L 313.81291,533.23281 L 314.10561,532.80991 L 314.46336,532.38701 L 314.78858,531.99663 L 315.17885,531.60626 L 315.56911,531.24841 L 315.95937,530.89057 L 316.38217,530.53274 L 316.83748,530.20742 L 317.29279,529.88211 L 317.78062,529.5568 L 318.26846,529.26402 L 318.78881,529.00378 L 319.30916,528.71099 L 319.86204,528.45075 L 320.44745,528.22303 L 321.03284,527.96279 L 321.61825,527.7676 L 328.87069,527.40975 L 328.48043,527.83266 L 328.09015,528.25556 L 327.73242,528.67847 L 327.40719,529.10137 L 327.11449,529.52428 L 326.85432,529.94718 L 326.59414,530.40261 L 326.36648,530.82551 L 326.17134,531.28095 L 325.97621,531.70386 L 325.84613,532.15928 L 325.71603,532.58218 L 325.61848,533.00509 L 325.55343,533.46053 L 325.5209,533.88343 L 325.48838,534.30633 L 325.5209,534.66417 L 325.55343,535.02202 L 325.58595,535.37986 L 325.651,535.70517 L 325.74856,536.06301 L 325.84613,536.42085 L 325.97621,536.77869 L 326.13883,537.13653 L 326.30144,537.49437 L 326.49657,537.85221 L 326.6917,538.21006 L 326.91936,538.5679 L 327.43971,539.28358 L 328.02512,539.99926 L 328.70808,540.74747 L 329.45609,541.46316 L 330.26915,542.21137 L 331.17977,542.92705 L 332.15543,543.67527 L 333.22867,544.42348 L 334.36694,545.13917 L 335.60279,545.88737 L 336.09063,546.21269 L 336.54594,546.47294 L 336.9362,546.70066 L 337.26142,546.86331 L 338.33465,547.57899 L 339.37536,548.29467 L 340.35103,549.04289 L 341.26165,549.75857 L 342.10723,550.50678 L 342.88776,551.255 L 343.63577,552.03574 L 344.28621,552.78396 L 344.90414,553.59723 L 345.48953,554.44304 L 346.04242,555.32138 L 346.56277,556.19971 L 347.01808,557.14312 L 347.47339,558.11904 L 347.86366,559.16004 L 348.25393,560.20103 L 350.46543,560.46128 L 352.57938,560.78658 L 353.58756,560.98177 L 354.59576,561.14443 L 355.57142,561.37215 L 356.54709,561.56734 L 357.49023,561.79505 L 358.40085,562.0553 L 359.27895,562.31555 L 360.12453,562.5758 L 360.9701,562.86857 L 361.78316,563.12882 L 362.59621,563.45413 L 363.34422,563.74692 L 364.09224,564.10475 L 364.84025,564.43007 L 365.55574,564.82043 L 366.27123,565.17828 L 366.98671,565.56865 L 367.66968,565.99155 L 368.32012,566.41446 L 368.97056,566.86989 L 369.58849,567.32532 L 370.23893,567.78076 L 370.82434,568.26873 L 371.40973,568.78922 L 371.99514,569.30972 L 372.54801,569.83022 L 373.10089,570.38324 L 373.65377,570.9688 L 374.27168,570.64349 L 373.75133,569.66755 L 373.23097,568.72416 L 372.77566,567.78076 L 372.32035,566.83736 L 371.93009,565.92649 L 371.57234,565.01562 L 371.2146,564.10475 L 370.9219,563.22642 L 370.66172,562.34808 L 370.40154,561.50227 L 370.20641,560.65647 L 370.0438,559.81066 L 369.91371,558.99739 L 369.84867,558.21663 L 369.78362,557.43589 L 369.78362,556.65515 L 369.78362,555.61416 L 369.88118,554.60569 L 370.01128,553.59723 L 370.17389,552.6213 L 370.40154,551.6779 L 370.66172,550.7345 L 370.98694,549.82363 L 371.37721,548.91277 L 371.79999,548.06696 L 372.2553,547.22116 L 372.80818,546.40787 L 373.36106,545.59459 L 373.97898,544.81386 L 374.66195,544.06564 L 375.37743,543.31743 L 376.15797,542.60174 L 376.97103,541.95113 L 377.8166,541.30051 L 378.6947,540.71494 L 379.57281,540.16192 L 380.48342,539.67395 L 381.42657,539.21852 L 382.40224,538.79562 L 383.41043,538.43778 L 384.41861,538.11247 L 385.45932,537.81968 L 386.53255,537.59197 L 387.63831,537.39678 L 388.77659,537.23413 L 389.91486,537.13653 L 391.08566,537.07147 L 392.28898,537.03894 L 393.06952,537.03894 L 393.85005,537.07147 L 394.59806,537.10401 L 395.34607,537.16906 L 396.1266,537.23413 L 396.87462,537.33171 L 397.59011,537.46184 L 398.33811,537.59197 L 399.08613,537.72209 L 399.80162,537.88475 L 400.51711,538.07993 L 401.23259,538.27512 L 401.94807,538.4703 L 402.63105,538.69802 L 403.34654,538.95827 L 404.0295,539.21852 L 404.71247,539.51129 L 405.39543,539.80408 L 406.0784,540.12939 L 406.72884,540.4547 L 407.37929,540.81254 L 408.06225,541.17038 L 408.7127,541.56075 L 409.33061,541.95113 L 409.98106,542.37402 L 410.59898,542.79693 L 411.24942,543.25236 L 411.86735,543.7078 L 412.48527,544.19577 L 413.1032,544.71626 L 413.68859,545.23676 L 414.30651,545.75725 L 415.4448,546.86331 L 416.55055,548.0019 L 417.0709,548.58745 L 417.55874,549.14048 L 418.04657,549.75857 L 418.5344,550.34413 L 418.98971,550.96221 L 419.44502,551.58031 L 419.86781,552.1984 L 420.2906,552.81648 L 420.68087,553.46711 L 421.03861,554.11773 L 421.42888,554.76835 L 421.7541,555.41897 L 422.07932,556.10212 L 422.40454,556.75274 L 422.69724,557.43589 L 422.98994,558.11904 L 423.25012,558.83473 L 423.5103,559.5504 L 423.73795,560.26609 L 423.96561,560.98177 L 424.16074,561.69746 L 424.35587,562.44567 L 424.51848,563.19388 L 424.6811,563.9421 L 424.81118,564.69031 L 424.94128,565.47105 L 425.03884,566.21927 L 425.13641,567.00001 L 425.20146,567.65063 L 425.26649,568.36632 L 425.33154,569.14707 L 425.42911,569.99287 L 425.49415,570.90373 L 425.59172,571.87966 L 425.68929,572.88812 L 425.78685,573.99419 L 426.17712,577.80031 L 426.56739,581.21607 L 426.76252,582.77756 L 426.99017,584.24146 L 427.1853,585.60776 L 427.41296,586.909 L 427.64061,588.08011 L 427.86827,589.15364 L 428.09592,590.12957 L 428.32358,591.00791 L 428.58375,591.78865 L 428.81141,592.47181 L 429.07159,593.05737 L 429.33177,593.54533 L 429.78708,594.32607 L 430.30744,595.07429 L 430.86031,595.75744 L 431.47824,596.40806 L 432.12868,597.02616 L 432.81165,597.57919 L 433.55965,598.09967 L 434.34019,598.58765 L 435.15325,599.01055 L 435.96629,599.40092 L 436.81188,599.72623 L 437.65745,599.98648 L 438.53555,600.18166 L 439.41365,600.31179 L 440.32428,600.40938 L 441.2349,600.44192 L 441.88534,600.44192 L 442.50326,600.37685 L 443.12118,600.31179 L 443.70659,600.2142 L 444.29198,600.1166 L 444.87738,599.95394 L 445.43026,599.79129 L 445.98313,599.59611 L 446.53602,599.33586 L 447.05637,599.10814 L 447.5442,598.81536 L 448.06455,598.49005 L 448.51986,598.16474 L 449.0077,597.8069 L 449.46301,597.41652 L 449.91833,596.99362 L 450.34111,596.57072 L 450.73138,596.11529 L 451.08913,595.62732 L 451.41434,595.17188 L 451.73957,594.68391 L 452.03227,594.16342 L 452.29245,593.64292 L 452.5201,593.12242 L 452.71523,592.5694 L 452.87784,592.01637 L 453.04045,591.46334 L 453.17054,590.87779 L 453.26811,590.29223 L 453.33315,589.67414 L 453.36567,589.05605 L 453.36567,588.43796 L 453.36567,587.81987 L 453.30063,587.13672 L 453.17054,586.42103 L 453.00794,585.67283 L 452.78028,584.82702 L 452.48758,583.85108 L 452.12983,582.74503 L 451.67452,581.54138 L 451.99974,581.02088 L 452.35749,580.53292 L 452.74776,580.07749 L 453.13802,579.65458 L 453.56081,579.26422 L 453.98359,578.93891 L 454.43892,578.6136 L 454.92675,578.32081 L 455.41457,578.06056 L 455.90241,577.83284 L 456.45528,577.63766 L 457.00817,577.475 L 457.56103,577.34488 L 458.14644,577.24729 L 458.76436,577.21476 L 459.38228,577.18223 L 460.1303,577.21476 L 460.81326,577.31235 L 461.171,577.37741 L 461.49623,577.44247 L 461.82144,577.54007 L 462.14667,577.67019 L 462.43937,577.80031 L 462.73207,577.93044 L 463.02477,578.0931 L 463.31747,578.25575 L 463.57764,578.41841 L 463.83782,578.64612 L 464.098,578.84131 L 464.35818,579.06903 L 464.78097,579.55699 L 465.20375,580.07749 L 465.36637,580.33773 L 465.52898,580.63052 L 465.65907,580.89076 L 465.78916,581.18354 L 465.91924,581.47632 L 466.01682,581.80163 L 466.08186,582.09441 L 466.1469,582.41972 L 466.24447,583.07034 L 466.27699,583.75349 L 466.27699,584.1764 L 466.24447,584.63183 L 466.17942,585.05473 L 466.08186,585.51017 L 465.98429,585.96561 L 465.8542,586.42103 L 465.72411,586.87648 L 465.52898,587.33191 L 465.33385,587.78734 L 465.13872,588.2753 L 464.87854,588.73074 L 464.61836,589.21871 L 464.35818,589.70667 L 464.03296,590.19464 L 463.70774,590.6826 L 463.34999,591.17056 L 462.56946,592.1465 L 461.72388,593.18749 L 460.74822,594.22849 L 459.67499,595.30201 L 458.47166,596.37554 L 457.2033,597.48159 L 455.83737,598.62017 L 454.37387,599.79129 L 452.39001,601.28773 L 450.40616,602.71909 L 448.45483,604.11792 L 446.50349,605.45169 L 444.55216,606.75293 L 442.60083,608.02165 L 440.68201,609.22529 L 438.76321,610.39641 L 436.8444,611.50246 L 434.92559,612.57599 L 433.00678,613.61697 L 431.12049,614.59291 L 429.23421,615.50378 L 427.34792,616.38212 L 425.46163,617.22792 L 423.60786,618.0412 L 421.7541,618.78941 L 419.90033,619.47257 L 418.07909,620.12318 L 416.22532,620.74127 L 414.4366,621.2943 L 412.61536,621.78226 L 410.82664,622.2377 L 409.03792,622.66061 L 407.24919,623.01845 L 405.493,623.34376 L 403.7368,623.604 L 402.01312,623.79919 L 400.28944,623.99438 L 398.56577,624.09197 L 396.84209,624.15703 L 395.15094,624.18956 L 394.07771,624.18956 L 393.03699,624.15703 L 391.96377,624.1245 L 390.95557,624.05943 L 389.91486,623.99438 L 388.90667,623.89678 L 387.931,623.79919 L 386.92283,623.66907 L 385.94716,623.53894 L 385.00401,623.37629 L 384.02835,623.1811 L 383.11773,622.98592 L 382.17458,622.79073 L 381.26396,622.56301 L 380.35333,622.3353 L 379.44271,622.07504 L 378.56462,621.78226 L 377.71903,621.52202 L 376.84094,621.1967 L 375.99537,620.87139 L 375.14978,620.54608 L 374.33673,620.18824 L 373.52367,619.79788 L 372.71062,619.4075 L 371.93009,619.01713 L 371.14955,618.59423 L 370.36902,618.1388 L 369.62101,617.68335 L 368.873,617.22792 L 368.15751,616.73996 L 367.44202,616.21946 L 366.72654,615.69896 L 366.01105,615.17847 L 365.3606,614.62544 L 364.71015,614.07242 L 364.09224,613.51938 L 363.47431,612.93382 L 362.88891,612.3808 L 362.33604,611.79524 L 361.81568,611.20969 L 361.29533,610.59159 L 360.77497,610.00603 L 360.31966,609.38794 L 359.86435,608.76985 L 359.44156,608.11923 L 359.01877,607.50115 L 358.66103,606.85053 L 358.30328,606.1999 L 357.94554,605.54928 L 357.62032,604.86613 L 357.32761,604.18298 L 357.06743,603.49983 L 356.80727,602.81668 L 356.5796,602.101 L 356.35195,601.41784 L 356.18934,600.70216 L 356.02673,599.95394 L 355.86412,599.23827 L 355.73403,598.49005 L 355.63646,597.74184 L 355.57142,596.99362 L 355.50638,596.2454 L 355.47385,595.46467 L 355.47385,594.68391 L 355.47385,593.80558 L 355.5389,592.95977 L 355.60394,592.11396 L 355.70151,591.30069 L 355.86412,590.48741 L 356.02673,589.70667 L 356.22186,588.95846 L 356.44952,588.21025 L 356.7097,587.49456 L 356.96988,586.81141 L 357.29509,586.12826 L 357.65284,585.47764 L 358.01058,584.82702 L 358.43337,584.20893 L 358.88868,583.62337 L 359.34399,583.07034 L 359.83183,582.51731 L 360.35219,581.99681 L 360.90506,581.50885 L 361.49046,581.02088 L 362.07586,580.59799 L 362.69378,580.17508 L 363.34422,579.75218 L 364.02719,579.39433 L 364.74268,579.06903 L 365.45817,578.74372 L 366.2387,578.45093 L 367.01924,578.19069 L 367.83229,577.93044 L 368.67787,577.70272 L 369.52345,577.54007 L 370.40154,577.37741 L 370.59667,576.85692 L 370.01128,576.17376 L 369.39336,575.52315 L 368.80796,574.87252 L 368.19004,574.25443 L 367.57211,573.63634 L 366.95419,573.05079 L 366.33626,572.49776 L 365.71835,571.94473 L 365.06791,571.45676 L 364.41745,570.93627 L 363.76701,570.48084 L 363.11657,569.99287 L 362.4336,569.56996 L 361.78316,569.14707 L 361.10019,568.75669 L 360.41722,568.39885 L 359.70174,568.041 L 359.01877,567.68316 L 358.30328,567.39039 L 357.58779,567.09761 L 356.8723,566.80482 L 356.15682,566.54458 L 355.44133,566.31686 L 354.69332,566.12168 L 353.94532,565.92649 L 353.1973,565.73131 L 352.44929,565.60118 L 351.66876,565.47105 L 350.92074,565.34093 L 350.14022,565.27587 L 349.35968,565.17828 L 348.57915,565.14574 L 348.5141,566.47951 L 348.38401,567.81328 L 348.2214,569.11453 L 347.99375,570.38324 L 347.73357,571.61942 L 347.44087,572.8556 L 347.08312,574.02672 L 346.69286,575.19784 L 346.23755,576.33642 L 345.74971,577.44247 L 345.22936,578.516 L 344.64396,579.58952 L 344.02604,580.59799 L 343.34307,581.60645 L 342.62758,582.58238 L 341.87957,583.52577 L 341.06652,584.46918 L 340.1559,585.38004 L 339.18023,586.32344 L 338.17204,587.26684 L 337.03377,588.17771 L 335.86297,589.12111 L 334.5946,590.03198 L 333.26119,590.97538 L 331.86274,591.91878 L 330.39924,592.82964 L 328.83817,593.77305 L 327.21206,594.68391 L 325.5209,595.62732 L 323.76471,596.53819 L 321.91094,597.48159 L 319.99213,598.39246 L 320.05718,598.91296 L 320.15474,599.40092 L 320.25231,599.88889 L 320.3824,600.37685 L 320.51249,600.83228 L 320.64258,601.28773 L 320.80519,601.71062 L 321.00032,602.13353 L 321.19545,602.55643 L 321.39059,602.94681 L 321.61825,603.33717 L 321.8459,603.69501 L 322.10608,604.05286 L 322.39877,604.4107 L 322.65895,604.73601 L 322.98417,605.02878 L 323.3094,605.35409 L 323.63462,605.61435 L 323.95984,605.87459 L 324.31758,606.13485 L 324.67533,606.36255 L 325.06559,606.55774 L 325.45586,606.7204 L 325.84613,606.88305 L 326.23639,607.04571 L 326.65918,607.17584 L 327.08197,607.27343 L 327.50476,607.37102 L 327.96007,607.43608 L 328.41538,607.46862 L 328.87069,607.50115 L 329.326,607.50115 L 329.87888,607.50115 L 330.43176,607.43608 L 330.98464,607.37102 L 331.53751,607.27343 L 332.0904,607.14331 L 332.64327,606.98065 L 333.19615,606.78546 L 333.78154,606.55774 L 334.36694,606.2975 L 334.98486,606.00472 L 335.63531,605.6794 L 336.28576,605.32157 L 337.00125,604.93119 L 337.71673,604.50829 L 338.49727,604.02032 L 339.27779,603.49983 z M 318.26846,589.83679 L 319.89456,589.34883 L 321.4231,588.82833 L 322.91913,588.30784 L 324.38263,587.7548 L 325.74856,587.20179 L 327.08197,586.64875 L 328.35033,586.06319 L 329.55366,585.44511 L 330.72446,584.85954 L 331.79769,584.24146 L 332.8384,583.59084 L 333.84659,582.94022 L 334.75721,582.2896 L 335.63531,581.60645 L 336.44836,580.89076 L 337.19638,580.20761 L 337.87934,579.4594 L 338.56231,578.71119 L 339.14771,577.96297 L 339.7331,577.14969 L 340.25346,576.33642 L 340.70877,575.49061 L 341.16408,574.61227 L 341.52183,573.70141 L 341.87957,572.79054 L 342.17227,571.84714 L 342.39993,570.8712 L 342.59506,569.86274 L 342.75768,568.85428 L 342.88776,567.81328 L 342.95281,566.73977 L 342.95281,565.63371 L 342.95281,565.3084 L 341.4893,565.60118 L 340.09085,565.92649 L 338.72492,566.28433 L 337.39151,566.6747 L 336.12315,567.09761 L 334.8873,567.52051 L 333.68398,568.00847 L 332.54571,568.49644 L 331.47247,569.04947 L 330.39924,569.6025 L 329.42357,570.18805 L 328.44791,570.80615 L 327.53728,571.45676 L 326.65918,572.10739 L 325.84613,572.82307 L 325.06559,573.53875 L 324.3501,574.31949 L 323.66714,575.10024 L 323.0167,575.94604 L 322.39877,576.79185 L 321.8459,577.70272 L 321.32554,578.64612 L 320.83771,579.58952 L 320.3824,580.59799 L 319.99213,581.63898 L 319.63439,582.7125 L 319.30916,583.81856 L 319.01647,584.95714 L 318.75629,586.12826 L 318.56115,587.33191 L 318.39854,588.56808 L 318.26846,589.83679 z "
       style="fill:#000000;fill-opacity:1;fill-rule:evenodd;stroke:none" />
  </g>
</svg>
