<?xml version="1.0" encoding="UTF-8" standalone="no"?>
<!-- Created with Inkscape (http://www.inkscape.org/) -->

<svg
   xmlns:dc="http://purl.org/dc/elements/1.1/"
   xmlns:cc="http://creativecommons.org/ns#"
   xmlns:rdf="http://www.w3.org/1999/02/22-rdf-syntax-ns#"
   xmlns:svg="http://www.w3.org/2000/svg"
   xmlns="http://www.w3.org/2000/svg"
   xmlns:sodipodi="http://sodipodi.sourceforge.net/DTD/sodipodi-0.dtd"
   xmlns:inkscape="http://www.inkscape.org/namespaces/inkscape"
   width="100"
   height="100"
   id="svg2"
   version="1.1"
   inkscape:version="0.48.2 r9819"
   sodipodi:docname="favicon.svg">
  <defs
     id="defs4" />
  <sodipodi:namedview
     id="base"
     pagecolor="#ffffff"
     bordercolor="#666666"
     borderopacity="1.0"
     inkscape:pageopacity="0.0"
     inkscape:pageshadow="2"
     inkscape:zoom="0.98994949"
     inkscape:cx="282.37648"
     inkscape:cy="200.58452"
     inkscape:document-units="px"
     inkscape:current-layer="layer1"
     showgrid="false"
     inkscape:window-width="1280"
     inkscape:window-height="697"
     inkscape:window-x="-8"
     inkscape:window-y="-8"
     inkscape:window-maximized="1" />
  <metadata
     id="metadata7">
    <rdf:RDF>
      <cc:Work
         rdf:about="">
        <dc:format>image/svg+xml</dc:format>
        <dc:type
           rdf:resource="http://purl.org/dc/dcmitype/StillImage" />
        <dc:title></dc:title>
      </cc:Work>
    </rdf:RDF>
  </metadata>
  <g
     inkscape:label="Livello 1"
     inkscape:groupmode="layer"
     id="layer1"
     transform="translate(0,-952.36218)">
    <g
       id="layer1-9"
       inkscape:label="Livello 1"
       transform="matrix(0.59797154,0,0,0.59797154,-315.61688,572.65584)">
      <g
         inkscape:label="Ebene 1"
         id="layer1-7"
         transform="translate(226.87975,139.41982)">
        <path
           inkscape:connector-curvature="0"
           id="path2229"
           d="m 339.27779,613.63562 0,1.49643 0,1.10605 0.0651,1.17112 0.065,1.23618 0.0976,1.2687 0.13009,1.13859 0.065,0.87834 0.065,0.58556 0,0.32531 0,0.48796 -0.065,0.48797 -0.065,0.48797 -0.0976,0.48796 -0.13008,0.48796 -0.19513,0.45544 -0.19515,0.45544 -0.22765,0.45543 -0.22765,0.45544 -0.2927,0.45543 -0.32522,0.4229 -0.35775,0.4229 -0.35774,0.4229 -0.42279,0.42291 -0.42279,0.4229 -0.48783,0.39038 -0.48783,0.39037 -0.48783,0.35784 -0.52036,0.35784 -0.52036,0.29279 -0.55288,0.29277 -0.55287,0.26024 -0.55288,0.22772 -0.5854,0.22773 -0.61792,0.19518 -0.5854,0.16266 -0.65045,0.13012 -0.61792,0.0976 -0.65044,0.0976 -0.68297,0.0651 -0.65044,0.0325 -0.68297,0 -1.00819,0 -0.97566,-0.0651 -0.94315,-0.0976 -0.94314,-0.13012 -0.91062,-0.16265 -0.8781,-0.22772 -0.84558,-0.26025 -0.84557,-0.29279 -0.81307,-0.32531 -0.78052,-0.35784 -0.78054,-0.4229 -0.74801,-0.4229 -0.71549,-0.48797 -0.68296,-0.52049 -0.68297,-0.58556 -0.65044,-0.58556 -0.65045,-0.65062 -0.58539,-0.65062 -0.55288,-0.71568 -0.55287,-0.74821 -0.52036,-0.74822 -0.45531,-0.81328 -0.45531,-0.8458 -0.4228,-0.87834 -0.39026,-0.87834 -0.32523,-0.9434 -0.32521,-0.97592 -0.32523,-1.00847 -0.26018,-1.00846 -0.22765,-1.07352 -0.19513,-1.10606 -0.19513,-1.13858 -4.03276,-1.39884 0.39026,-1.20365 0.45531,-1.20365 0.48784,-1.17111 0.55288,-1.10605 0.61792,-1.10606 0.65044,-1.041 0.35775,-0.52049 0.39026,-0.5205 0.39027,-0.5205 0.39027,-0.48796 0.19513,-1.72415 0.26018,-1.65908 0.1626,-0.81328 0.16262,-0.81327 0.16261,-0.81327 0.19513,-0.78075 0.22766,-0.78075 0.22765,-0.74821 0.22766,-0.74821 0.26018,-0.74822 0.26017,-0.74821 0.26018,-0.71568 0.2927,-0.71569 0.32522,-0.68315 0.32523,-0.71568 0.32522,-0.68316 0.35774,-0.65061 0.35775,-0.65062 0.39026,-0.65062 0.39027,-0.65062 0.39027,-0.6181 0.42278,-0.61809 0.45531,-0.61808 0.42279,-0.58556 0.48783,-0.58555 0.45531,-0.55304 0.48784,-0.58555 0.52035,-0.55303 0.52036,-0.5205 0.52036,-0.5205 0.55287,-0.52049 0.58541,-0.5205 0.55287,-0.48796 0.5854,-0.48797 0.61793,-0.45543 0.61791,-0.48797 0.61792,-0.4229 0.65045,-0.45544 0.65044,-0.4229 0.68297,-0.4229 0.68296,-0.39038 0.68297,-0.39037 1.43098,-0.74821 1.49602,-0.71568 1.52854,-0.65062 1.59359,-0.6181 1.65864,-0.58555 1.72368,-0.5205 1.75619,-0.45543 1.82124,-0.42291 1.85377,-0.39037 1.91881,-0.35784 -0.32523,-0.58556 -0.39026,-0.58556 -0.42279,-0.55302 -0.48784,-0.5205 -0.58539,-0.48797 -0.58541,-0.45543 -0.68296,-0.4229 -0.74801,-0.4229 -0.78053,-0.35785 -0.84558,-0.35784 -0.91062,-0.32531 -0.94314,-0.29277 -1.04072,-0.26026 -1.07323,-0.22772 -1.13827,-0.19518 -1.1708,-0.19519 -0.68296,-0.0651 -0.58541,-0.0976 -0.52036,-0.0976 -0.42278,-0.0651 -1.04072,-0.16266 -1.00818,-0.19519 -0.97566,-0.19518 -0.91062,-0.22772 -0.91063,-0.22772 -0.84558,-0.22772 -0.81306,-0.26024 -0.78052,-0.29278 -0.74802,-0.26025 -0.71548,-0.32531 -0.65044,-0.29279 -0.65046,-0.32531 -0.58539,-0.35783 -0.55288,-0.35784 -0.52036,-0.35784 -0.48783,-0.39038 -0.45531,-0.4229 -0.42279,-0.4229 -0.39026,-0.45544 -0.39027,-0.45544 -0.32522,-0.48796 -0.2927,-0.5205 -0.2927,-0.52049 -0.22766,-0.55303 -0.22765,-0.55303 -0.19513,-0.58555 -0.16261,-0.6181 -0.1301,-0.61808 -0.0976,-0.65062 -0.065,-0.65062 -0.0325,-0.71569 -0.0325,-0.68315 0,-0.55303 0.0325,-0.55303 0.0651,-0.55302 0.065,-0.5205 0.0976,-0.52049 0.0976,-0.48797 0.13008,-0.52049 0.16261,-0.48797 0.16262,-0.45543 0.19513,-0.48798 0.22765,-0.45543 0.22766,-0.45543 0.26018,-0.45543 0.26018,-0.42291 0.29269,-0.4229 0.2927,-0.4229 0.35775,-0.4229 0.32522,-0.39038 0.39027,-0.39037 0.39026,-0.35785 0.39026,-0.35784 0.4228,-0.35783 0.45531,-0.32532 0.45531,-0.32531 0.48783,-0.32531 0.48784,-0.29278 0.52035,-0.26024 0.52035,-0.29279 0.55288,-0.26024 0.58541,-0.22772 0.58539,-0.26024 0.58541,-0.19519 7.25244,-0.35785 -0.39026,0.42291 -0.39028,0.4229 -0.35773,0.42291 -0.32523,0.4229 -0.2927,0.42291 -0.26017,0.4229 -0.26018,0.45543 -0.22766,0.4229 -0.19514,0.45544 -0.19513,0.42291 -0.13008,0.45542 -0.1301,0.4229 -0.0976,0.42291 -0.065,0.45544 -0.0325,0.4229 -0.0325,0.4229 0.0325,0.35784 0.0325,0.35785 0.0325,0.35784 0.065,0.32531 0.0976,0.35784 0.0976,0.35784 0.13008,0.35784 0.16262,0.35784 0.16261,0.35784 0.19513,0.35784 0.19513,0.35785 0.22766,0.35784 0.52035,0.71568 0.58541,0.71568 0.68296,0.74821 0.74801,0.71569 0.81306,0.74821 0.91062,0.71568 0.97566,0.74822 1.07324,0.74821 1.13827,0.71569 1.23585,0.7482 0.48784,0.32532 0.45531,0.26025 0.39026,0.22772 0.32522,0.16265 1.07323,0.71568 1.04071,0.71568 0.97567,0.74822 0.91062,0.71568 0.84558,0.74821 0.78053,0.74822 0.74801,0.78074 0.65044,0.74822 0.61793,0.81327 0.58539,0.84581 0.55289,0.87834 0.52035,0.87833 0.45531,0.94341 0.45531,0.97592 0.39027,1.041 0.39027,1.04099 2.2115,0.26025 2.11395,0.3253 1.00818,0.19519 1.0082,0.16266 0.97566,0.22772 0.97567,0.19519 0.94314,0.22771 0.91062,0.26025 0.8781,0.26025 0.84558,0.26025 0.84557,0.29277 0.81306,0.26025 0.81305,0.32531 0.74801,0.29279 0.74802,0.35783 0.74801,0.32532 0.71549,0.39036 0.71549,0.35785 0.71548,0.39037 0.68297,0.4229 0.65044,0.42291 0.65044,0.45543 0.61793,0.45543 0.65044,0.45544 0.58541,0.48797 0.58539,0.52049 0.58541,0.5205 0.55287,0.5205 0.55288,0.55302 0.55288,0.58556 0.61791,-0.32531 -0.52035,-0.97594 -0.52036,-0.94339 -0.45531,-0.9434 -0.45531,-0.9434 -0.39026,-0.91087 -0.35775,-0.91087 -0.35774,-0.91087 -0.2927,-0.87833 -0.26018,-0.87834 -0.26018,-0.84581 -0.19513,-0.8458 -0.16261,-0.84581 -0.13009,-0.81327 -0.065,-0.78076 -0.0651,-0.78074 0,-0.78074 0,-1.04099 0.0976,-1.00847 0.1301,-1.00846 0.16261,-0.97593 0.22765,-0.9434 0.26018,-0.9434 0.32522,-0.91087 0.39027,-0.91086 0.42278,-0.84581 0.45531,-0.8458 0.55288,-0.81329 0.55288,-0.81328 0.61792,-0.78073 0.68297,-0.74822 0.71548,-0.74821 0.78054,-0.71569 0.81306,-0.65061 0.84557,-0.65062 0.8781,-0.58557 0.87811,-0.55302 0.91061,-0.48797 0.94315,-0.45543 0.97567,-0.4229 1.00819,-0.35784 1.00818,-0.32531 1.04071,-0.29279 1.07323,-0.22771 1.10576,-0.19519 1.13828,-0.16265 1.13827,-0.0976 1.1708,-0.0651 1.20332,-0.0325 0.78054,0 0.78053,0.0325 0.74801,0.0325 0.74801,0.065 0.78053,0.0651 0.74802,0.0976 0.71549,0.13013 0.748,0.13013 0.74802,0.13012 0.71549,0.16266 0.71549,0.19518 0.71548,0.19519 0.71548,0.19518 0.68298,0.22772 0.71549,0.26025 0.68296,0.26025 0.68297,0.29277 0.68296,0.29279 0.68297,0.32531 0.65044,0.32531 0.65045,0.35784 0.68296,0.35784 0.65045,0.39037 0.61791,0.39038 0.65045,0.42289 0.61792,0.42291 0.65044,0.45543 0.61793,0.45544 0.61792,0.48797 0.61793,0.52049 0.58539,0.5205 0.61792,0.52049 1.13829,1.10606 1.10575,1.13859 0.52035,0.58555 0.48784,0.55303 0.48783,0.61809 0.48783,0.58556 0.45531,0.61808 0.45531,0.6181 0.42279,0.61809 0.42279,0.61808 0.39027,0.65063 0.35774,0.65062 0.39027,0.65062 0.32522,0.65062 0.32522,0.68315 0.32522,0.65062 0.2927,0.68315 0.2927,0.68315 0.26018,0.71569 0.26018,0.71567 0.22765,0.71569 0.22766,0.71568 0.19513,0.71569 0.19513,0.74821 0.16261,0.74821 0.16262,0.74822 0.13008,0.74821 0.1301,0.78074 0.0976,0.74822 0.0976,0.78074 0.065,0.65062 0.065,0.71569 0.0651,0.78075 0.0976,0.8458 0.065,0.91086 0.0976,0.97593 0.0976,1.00846 0.0976,1.10607 0.39027,3.80612 0.39027,3.41576 0.19513,1.56149 0.22765,1.4639 0.19513,1.3663 0.22766,1.30124 0.22765,1.17111 0.22766,1.07353 0.22765,0.97593 0.22766,0.87834 0.26017,0.78074 0.22766,0.68316 0.26018,0.58556 0.26018,0.48796 0.45531,0.78074 0.52036,0.74822 0.55287,0.68315 0.61793,0.65062 0.65044,0.6181 0.68297,0.55303 0.748,0.52048 0.78054,0.48798 0.81306,0.4229 0.81304,0.39037 0.84559,0.32531 0.84557,0.26025 0.8781,0.19518 0.8781,0.13013 0.91063,0.0976 0.91062,0.0325 0.65044,0 0.61792,-0.0651 0.61792,-0.0651 0.58541,-0.0976 0.58539,-0.0976 0.5854,-0.16266 0.55288,-0.16265 0.55287,-0.19518 0.55289,-0.26025 0.52035,-0.22772 0.48783,-0.29278 0.52035,-0.32531 0.45531,-0.32531 0.48784,-0.35784 0.45531,-0.39038 0.45532,-0.4229 0.42278,-0.4229 0.39027,-0.45543 0.35775,-0.48797 0.32521,-0.45544 0.32523,-0.48797 0.2927,-0.52049 0.26018,-0.5205 0.22765,-0.5205 0.19513,-0.55302 0.16261,-0.55303 0.16261,-0.55303 0.13009,-0.58555 0.0976,-0.58556 0.065,-0.61809 0.0325,-0.61809 0,-0.61809 0,-0.61809 -0.065,-0.68315 -0.13009,-0.71569 -0.1626,-0.7482 -0.22766,-0.84581 -0.2927,-0.97594 -0.35775,-1.10605 -0.45531,-1.20365 0.32522,-0.5205 0.35775,-0.48796 0.39027,-0.45543 0.39026,-0.42291 0.42279,-0.39036 0.42278,-0.32531 0.45533,-0.32531 0.48783,-0.29279 0.48782,-0.26025 0.48784,-0.22772 0.55287,-0.19518 0.55289,-0.16266 0.55286,-0.13012 0.58541,-0.0976 0.61792,-0.0325 0.61792,-0.0325 0.74802,0.0325 0.68296,0.0976 0.35774,0.0651 0.32523,0.0651 0.32521,0.0976 0.32523,0.13012 0.2927,0.13012 0.2927,0.13013 0.2927,0.16266 0.2927,0.16265 0.26017,0.16266 0.26018,0.22771 0.26018,0.19519 0.26018,0.22772 0.42279,0.48796 0.42278,0.5205 0.16262,0.26024 0.16261,0.29279 0.13009,0.26024 0.13009,0.29278 0.13008,0.29278 0.0976,0.32531 0.065,0.29278 0.065,0.32531 0.0976,0.65062 0.0325,0.68315 0,0.42291 -0.0325,0.45543 -0.065,0.4229 -0.0976,0.45544 -0.0976,0.45544 -0.13009,0.45542 -0.13009,0.45545 -0.19513,0.45543 -0.19513,0.45543 -0.19513,0.48796 -0.26018,0.45544 -0.26018,0.48797 -0.26018,0.48796 -0.32522,0.48797 -0.32522,0.48796 -0.35775,0.48796 -0.78053,0.97594 -0.84558,1.04099 -0.97566,1.041 -1.07323,1.07352 -1.20333,1.07353 -1.26836,1.10605 -1.36593,1.13858 -1.4635,1.17112 -1.98386,1.49644 -1.98385,1.43136 -1.95133,1.39883 -1.95134,1.33377 -1.95133,1.30124 -1.95133,1.26872 -1.91882,1.20364 -1.9188,1.17112 -1.91881,1.10605 -1.91881,1.07353 -1.91881,1.04098 -1.88629,0.97594 -1.88628,0.91087 -1.88629,0.87834 -1.88629,0.8458 -1.85377,0.81328 -1.85376,0.74821 -1.85377,0.68316 -1.82124,0.65061 -1.85377,0.61809 -1.78872,0.55303 -1.82124,0.48796 -1.78872,0.45544 -1.78872,0.42291 -1.78873,0.35784 -1.75619,0.32531 -1.7562,0.26024 -1.72368,0.19519 -1.72368,0.19519 -1.72367,0.0976 -1.72368,0.0651 -1.69115,0.0325 -1.07323,0 -1.04072,-0.0325 -1.07322,-0.0325 -1.0082,-0.0651 -1.04071,-0.0651 -1.00819,-0.0976 -0.97567,-0.0976 -1.00817,-0.13012 -0.97567,-0.13013 -0.94315,-0.16265 -0.97566,-0.19519 -0.91062,-0.19518 -0.94315,-0.19519 -0.91062,-0.22772 -0.91063,-0.22771 -0.91062,-0.26026 -0.87809,-0.29278 -0.84559,-0.26024 -0.87809,-0.32532 -0.84557,-0.32531 -0.84559,-0.32531 -0.81305,-0.35784 -0.81306,-0.39036 -0.81305,-0.39038 -0.78053,-0.39037 -0.78054,-0.4229 -0.78053,-0.45543 -0.74801,-0.45545 -0.74801,-0.45543 -0.71549,-0.48796 -0.71549,-0.5205 -0.71548,-0.5205 -0.71549,-0.52049 -0.65045,-0.55303 -0.65045,-0.55302 -0.61791,-0.55304 -0.61793,-0.58556 -0.5854,-0.55302 -0.55287,-0.58556 -0.52036,-0.58555 -0.52035,-0.6181 -0.52036,-0.58556 -0.45531,-0.61809 -0.45531,-0.61809 -0.42279,-0.65062 -0.42279,-0.61808 -0.35774,-0.65062 -0.35775,-0.65063 -0.35774,-0.65062 -0.32522,-0.68315 -0.29271,-0.68315 -0.26018,-0.68315 -0.26016,-0.68315 -0.22767,-0.71568 -0.22765,-0.68316 -0.16261,-0.71568 -0.16261,-0.74822 -0.16261,-0.71567 -0.13009,-0.74822 -0.0976,-0.74821 -0.065,-0.74822 -0.065,-0.74822 -0.0325,-0.78073 0,-0.78076 0,-0.87833 0.065,-0.84581 0.065,-0.84581 0.0976,-0.81327 0.16261,-0.81328 0.16261,-0.78074 0.19513,-0.74821 0.22766,-0.74821 0.26018,-0.71569 0.26018,-0.68315 0.32521,-0.68315 0.35775,-0.65062 0.35774,-0.65062 0.42279,-0.61809 0.45531,-0.58556 0.45531,-0.55303 0.48784,-0.55303 0.52036,-0.5205 0.55287,-0.48796 0.5854,-0.48797 0.5854,-0.42289 0.61792,-0.42291 0.65044,-0.4229 0.68297,-0.35785 0.71549,-0.3253 0.71549,-0.32531 0.78053,-0.29279 0.78054,-0.26024 0.81305,-0.26025 0.84558,-0.22772 0.84558,-0.16265 0.87809,-0.16266 0.19513,-0.52049 -0.58539,-0.68316 -0.61792,-0.65061 -0.5854,-0.65063 -0.61792,-0.61809 -0.61793,-0.61809 -0.61792,-0.58555 -0.61793,-0.55303 -0.61791,-0.55303 -0.65044,-0.48797 -0.65046,-0.52049 -0.65044,-0.45543 -0.65044,-0.48797 -0.68297,-0.42291 -0.65044,-0.42289 -0.68297,-0.39038 -0.68297,-0.35784 -0.71548,-0.35785 -0.68297,-0.35784 -0.71549,-0.29277 -0.71549,-0.29278 -0.71549,-0.29279 -0.71548,-0.26024 -0.71549,-0.22772 -0.74801,-0.19518 -0.748,-0.19519 -0.74802,-0.19518 -0.74801,-0.13013 -0.78053,-0.13013 -0.74802,-0.13012 -0.78052,-0.0651 -0.78054,-0.0976 -0.78053,-0.0325 -0.0651,1.33377 -0.13009,1.33377 -0.16261,1.30125 -0.22765,1.26871 -0.26018,1.23618 -0.2927,1.23618 -0.35775,1.17112 -0.39026,1.17112 -0.45531,1.13858 -0.48784,1.10605 -0.52035,1.07353 -0.5854,1.07352 -0.61792,1.00847 -0.68297,1.00846 -0.71549,0.97593 -0.74801,0.94339 -0.81305,0.94341 -0.91062,0.91086 -0.97567,0.9434 -1.00819,0.9434 -1.13827,0.91087 -1.1708,0.9434 -1.26837,0.91087 -1.33341,0.9434 -1.39845,0.9434 -1.4635,0.91086 -1.56107,0.94341 -1.62611,0.91086 -1.69116,0.94341 -1.75619,0.91087 -1.85377,0.9434 -1.91881,0.91087 0.0651,0.5205 0.0976,0.48796 0.0976,0.48797 0.13009,0.48796 0.13009,0.45543 0.13009,0.45545 0.16261,0.42289 0.19513,0.42291 0.19513,0.4229 0.19514,0.39038 0.22766,0.39036 0.22765,0.35784 0.26018,0.35785 0.29269,0.35784 0.26018,0.32531 0.32522,0.29277 0.32523,0.32531 0.32522,0.26026 0.32522,0.26024 0.35774,0.26026 0.35775,0.2277 0.39026,0.19519 0.39027,0.16266 0.39027,0.16265 0.39026,0.16266 0.42279,0.13013 0.42279,0.0976 0.42279,0.0976 0.45531,0.0651 0.45531,0.0325 0.45531,0.0325 0.45531,0 0.55288,0 0.55288,-0.0651 0.55288,-0.0651 0.55287,-0.0976 0.55289,-0.13012 0.55287,-0.16266 0.55288,-0.19519 0.58539,-0.22772 0.5854,-0.26024 0.61792,-0.29278 0.65045,-0.32532 0.65045,-0.35783 0.71549,-0.39038 0.71548,-0.4229 0.78054,-0.48797 0.78052,-0.52049 z m -21.00933,-13.66304 1.6261,-0.48796 1.52854,-0.5205 1.49603,-0.52049 1.4635,-0.55304 1.36593,-0.55301 1.33341,-0.55304 1.26836,-0.58556 1.20333,-0.61808 1.1708,-0.58557 1.07323,-0.61808 1.04071,-0.65062 1.00819,-0.65062 0.91062,-0.65062 0.8781,-0.68315 0.81305,-0.71569 0.74802,-0.68315 0.68296,-0.74821 0.68297,-0.74821 0.5854,-0.74822 0.58539,-0.81328 0.52036,-0.81327 0.45531,-0.84581 0.45531,-0.87834 0.35775,-0.91086 0.35774,-0.91087 0.2927,-0.9434 0.22766,-0.97594 0.19513,-1.00846 0.16262,-1.00846 0.13008,-1.041 0.065,-1.07351 0,-1.10606 0,-0.32531 -1.46351,0.29278 -1.39845,0.32531 -1.36593,0.35784 -1.33341,0.39037 -1.26836,0.42291 -1.23585,0.4229 -1.20332,0.48796 -1.13827,0.48797 -1.07324,0.55303 -1.07323,0.55303 -0.97567,0.58555 -0.97566,0.6181 -0.91063,0.65061 -0.8781,0.65063 -0.81305,0.71568 -0.78054,0.71568 -0.71549,0.78074 -0.68296,0.78075 -0.65044,0.8458 -0.61793,0.84581 -0.55287,0.91087 -0.52036,0.9434 -0.48783,0.9434 -0.45531,1.00847 -0.39027,1.04099 -0.35774,1.07352 -0.32523,1.10606 -0.29269,1.13858 -0.26018,1.17112 -0.19514,1.20365 -0.16261,1.23617 -0.13008,1.26871 z"
           style="fill:#ffffff;fill-opacity:1;fill-rule:evenodd;stroke:none" />
      </g>
    </g>
  </g>
</svg>
